<?xml version="1.0" standalone="no"?>
<!DOCTYPE svg PUBLIC "-//W3C//DTD SVG 20010904//EN"
 "http://www.w3.org/TR/2001/REC-SVG-20010904/DTD/svg10.dtd">
<svg version="1.0" xmlns="http://www.w3.org/2000/svg"
 width="817.000000pt" height="306.000000pt" viewBox="0 0 817.000000 306.000000"
 preserveAspectRatio="xMidYMid meet">

<g transform="translate(0.000000,306.000000) scale(0.100000,-0.100000)"
fill="#000000" stroke="none">
<path d="M0 1530 l0 -1530 4085 0 4085 0 0 1530 0 1530 -4085 0 -4085 0 0
-1530z m2335 675 c22 -22 25 -32 25 -105 l0 -80 -750 0 -750 0 0 80 c0 73 3
83 25 105 l24 25 701 0 701 0 24 -25z m2863 -95 c47 -29 72 -89 72 -175 0
-169 -73 -312 -300 -588 -37 -45 -40 -54 -40 -109 l0 -60 41 80 c52 101 115
173 181 206 63 31 106 33 142 5 23 -18 26 -28 26 -77 0 -31 -12 -113 -25 -182
-29 -145 -31 -183 -10 -200 26 -21 60 -3 127 68 60 64 65 73 71 123 11 106 82
215 172 262 56 30 174 31 230 1 50 -26 100 -95 116 -160 7 -27 16 -53 19 -57
6 -7 147 17 156 26 2 2 13 39 24 83 27 103 50 128 122 129 52 0 53 -1 56 -31
2 -17 -6 -67 -17 -110 -10 -44 -22 -99 -26 -124 -7 -44 -6 -43 34 35 92 183
240 281 325 214 30 -24 33 -57 14 -170 -10 -60 -9 -72 4 -86 20 -20 46 -11 99
33 47 39 68 40 86 3 39 -82 -86 -198 -215 -199 -104 0 -142 43 -142 160 0 51
-4 70 -13 70 -45 0 -133 -175 -177 -347 -14 -54 -44 -83 -87 -83 -65 0 -93 59
-93 194 0 76 -1 78 -22 72 -13 -3 -51 -9 -85 -13 -48 -4 -63 -10 -63 -22 -1
-61 -89 -172 -165 -207 -101 -47 -232 -18 -292 65 -15 20 -30 40 -34 45 -4 5
-36 -16 -69 -47 -90 -81 -183 -107 -265 -73 -70 30 -85 102 -55 272 18 98 20
128 10 137 -28 28 -116 -124 -164 -283 -30 -101 -55 -130 -118 -137 -35 -4
-47 -1 -63 17 -19 21 -20 35 -18 234 2 116 8 254 14 306 34 301 112 539 212
647 68 74 140 92 205 53z m2146 -101 c104 -82 75 -309 -58 -456 l-48 -53 75 0
c95 0 107 -5 107 -42 0 -76 -45 -98 -199 -98 l-110 0 -7 -37 c-10 -51 10 -222
30 -261 30 -57 101 -77 171 -48 19 8 65 45 103 83 l68 68 13 84 c17 117 47
207 74 226 25 17 79 20 108 5 26 -14 25 -59 -6 -210 -29 -141 -33 -241 -10
-260 26 -21 59 -3 133 75 40 41 78 75 85 75 24 0 37 -24 37 -70 0 -38 -6 -55
-35 -92 -132 -169 -307 -197 -376 -60 l-25 51 -38 -38 c-21 -22 -61 -52 -90
-67 -45 -26 -61 -29 -137 -29 -78 0 -90 3 -135 30 -94 59 -134 164 -134 357
l0 118 -44 0 c-54 0 -76 19 -76 66 0 50 29 74 90 74 42 0 50 3 50 19 0 43 54
221 90 298 80 171 211 257 294 192z m-2889 -34 c73 -26 131 -69 162 -123 24
-40 28 -57 27 -122 -1 -80 -19 -131 -53 -150 -31 -16 -77 -12 -102 9 -22 18
-24 27 -24 106 0 82 -1 88 -28 111 -39 33 -100 47 -192 42 -130 -7 -192 -51
-202 -141 -10 -88 35 -133 211 -207 160 -68 211 -95 257 -137 61 -55 83 -105
83 -188 0 -214 -182 -336 -479 -322 -134 6 -215 32 -278 88 -55 47 -78 103
-78 183 0 75 11 107 48 136 33 25 83 22 115 -7 18 -16 20 -26 14 -85 -8 -85 4
-111 63 -140 40 -20 62 -23 161 -23 104 0 121 3 164 25 61 31 89 78 82 135 -7
57 -59 101 -181 154 -207 89 -245 109 -295 161 -62 63 -86 133 -76 222 15 146
124 250 301 288 64 14 243 5 300 -15z m-2097 -537 l-3 -523 -745 0 -745 0 -3
523 -2 522 750 0 750 0 -2 -522z m5379 322 c40 -24 51 -71 30 -122 -33 -79
-179 -94 -217 -22 -16 28 -16 75 0 104 30 56 127 77 187 40z"/>
<path d="M5070 1958 c-31 -50 -68 -176 -95 -325 -14 -75 -24 -138 -22 -140 5
-4 74 96 110 158 39 69 77 191 77 249 0 90 -33 117 -70 58z"/>
<path d="M5729 1332 c-50 -25 -79 -89 -79 -174 0 -38 7 -84 15 -104 16 -38 61
-64 100 -56 30 5 69 48 83 91 11 31 9 36 -22 73 -35 41 -62 122 -53 158 7 28
-5 32 -44 12z"/>
<path d="M7228 1883 c-23 -26 -44 -71 -61 -133 -19 -67 -49 -222 -43 -227 7
-8 84 93 110 145 33 65 50 150 38 193 -10 39 -23 46 -44 22z"/>
<path d="M1303 1713 c-27 -10 -10 -41 70 -121 l82 -83 -87 -83 c-49 -45 -88
-87 -88 -93 0 -6 7 -16 15 -23 12 -10 32 5 123 93 l107 105 -101 106 c-56 58
-104 106 -106 105 -1 0 -9 -3 -15 -6z"/>
<path d="M1530 1345 c-10 -12 -10 -18 0 -30 10 -12 47 -15 215 -15 168 0 205
3 215 15 10 12 10 18 0 30 -10 12 -47 15 -215 15 -168 0 -205 -3 -215 -15z"/>
</g>
</svg>
